<svg xmlns="http://www.w3.org/2000/svg" width="1600" height="900" viewBox="0 0 1600 900"><rect width="1600" height="900" fill="#0B0C0A"/><g transform="translate(57.9,38.7) scale(0.2381)"><g fill="#C8FF1E" stroke="#C8FF1E" stroke-width="28" stroke-linejoin="round"><path d="M 300 676 L 404 676 L 250 838 Z"/></g><rect x="160" y="224" width="704" height="480" rx="140" fill="#C8FF1E"/><g fill="#0B0C0A" transform="translate(512,464) scale(1.18) translate(-512,-464)"><rect x="404" y="444" width="216" height="40" rx="20"/><rect x="356" y="396" width="48" height="136" rx="18"/><rect x="620" y="396" width="48" height="136" rx="18"/><rect x="316" y="420" width="40" height="88" rx="14"/><rect x="668" y="420" width="40" height="88" rx="14"/></g></g><text x="297.6190476190476" y="196" font-family="Avenir Next, Helvetica Neue, sans-serif" font-weight="800" font-size="84" fill="#C8FF1E" text-anchor="start">snap</text><text x="100" y="350" font-family="Avenir Next, Helvetica Neue, sans-serif" font-weight="700" font-size="52" fill="#F2F4F1" text-anchor="start">every accountability app</text><text x="100" y="416" font-family="Avenir Next, Helvetica Neue, sans-serif" font-weight="700" font-size="52" fill="#F2F4F1" text-anchor="start">asks if you worked out.</text><text x="100" y="506" font-family="Avenir Next, Helvetica Neue, sans-serif" font-weight="800" font-size="52" fill="#C8FF1E" text-anchor="start">snap already knows,</text><text x="100" y="572" font-family="Avenir Next, Helvetica Neue, sans-serif" font-weight="800" font-size="52" fill="#C8FF1E" text-anchor="start">and it wants its five bucks.</text><text x="100" y="700" font-family="Avenir Next, Helvetica Neue, sans-serif" font-weight="600" font-size="34" fill="#8A9196" text-anchor="start">HealthKit is the referee · 0.05 SOL on the line</text><rect x="900" y="150" width="138" height="96" rx="44" fill="#C8FF1E"/><text x="938" y="212" font-family="Avenir Next, Helvetica Neue, sans-serif" font-weight="600" font-size="40" fill="#0B0C0A" text-anchor="start">bro</text><rect x="900" y="262" width="512" height="96" rx="44" fill="#C8FF1E"/><text x="938" y="324" font-family="Avenir Next, Helvetica Neue, sans-serif" font-weight="600" font-size="40" fill="#0B0C0A" text-anchor="start">7:24 and no workout 😭</text><path d="M 934 430 L 934 488 L 892 456 Z" fill="#C8FF1E" stroke="#C8FF1E" stroke-width="18" stroke-linejoin="round"/><rect x="900" y="374" width="596" height="96" rx="44" fill="#C8FF1E"/><text x="938" y="436" font-family="Avenir Next, Helvetica Neue, sans-serif" font-weight="600" font-size="40" fill="#0B0C0A" text-anchor="start">you said no excuses today</text><path d="M 1486 556 L 1486 614 L 1528 582 Z" fill="#23262A" stroke="#23262A" stroke-width="18" stroke-linejoin="round"/><rect x="1195" y="500" width="325" height="96" rx="44" fill="#23262A"/><text x="1233" y="562" font-family="Avenir Next, Helvetica Neue, sans-serif" font-weight="600" font-size="40" fill="#F2F4F1" text-anchor="start">homework bro</text><path d="M 934 682 L 934 740 L 892 708 Z" fill="#C8FF1E" stroke="#C8FF1E" stroke-width="18" stroke-linejoin="round"/><rect x="900" y="626" width="600" height="96" rx="44" fill="#C8FF1E"/><text x="938" y="688" font-family="Avenir Next, Helvetica Neue, sans-serif" font-weight="600" font-size="40" fill="#0B0C0A" text-anchor="start">30 mins then. push day. go.</text></svg>